<svg width="24" height="24" viewBox="0 0 24 24" fill="none" xmlns="http://www.w3.org/2000/svg">
<path d="M21.0278 16.248C20.7181 16.554 20.2198 16.554 19.91 16.248L12.5637 8.98994C12.4116 8.84567 12.2089 8.76511 11.998 8.76511C11.7871 8.76511 11.5844 8.84567 11.4323 8.98994L4.09078 16.2433C3.78102 16.5493 3.28273 16.5493 2.97297 16.2433C2.65787 15.9319 2.65787 15.4232 2.97297 15.1119L10.3008 7.87205C10.7582 7.4408 11.3661 7.2002 11.9984 7.2002C12.6306 7.2002 13.2386 7.4408 13.696 7.87205L21.0279 15.1166C21.3429 15.4279 21.3429 15.9367 21.0278 16.248Z" fill="black"/>
</svg>
