<svg width="24" height="24" viewBox="0 0 24 24" fill="none" xmlns="http://www.w3.org/2000/svg">
<path d="M21.0279 7.75248C20.7181 7.44639 20.2197 7.44639 19.91 7.75248L12.5637 15.0109C12.4116 15.1552 12.2089 15.2358 11.998 15.2358C11.7871 15.2358 11.5844 15.1552 11.4323 15.0109L4.09082 7.75647C3.78104 7.45037 3.28269 7.45036 2.9729 7.75644V7.75644C2.65783 8.06775 2.65781 8.57649 2.97287 8.88782L10.3008 16.1289C10.7584 16.5598 11.3663 16.8002 11.9984 16.8002C12.6305 16.8002 13.2384 16.5598 13.696 16.1289L21.0279 8.88388C21.343 8.57254 21.3429 8.06379 21.0279 7.75248V7.75248Z" fill="black"/>
</svg>
