<svg width="51" height="51" viewBox="0 0 51 51" fill="none" xmlns="http://www.w3.org/2000/svg">
<g clip-path="url(#clip0_613_7798)">
<path d="M43.0656 43.1716C52.8275 33.4097 52.8275 17.5825 43.0656 7.82059C33.3037 -1.94133 17.4765 -1.94133 7.71457 7.82059C-2.04734 17.5825 -2.04734 33.4097 7.71457 43.1716C17.4765 52.9335 33.3037 52.9335 43.0656 43.1716Z" fill="white"/>
<path d="M34.3306 15.6505V9.89844H28.2114C26.5001 9.99124 24.8808 10.7027 23.6549 11.9005C22.429 13.0982 21.6802 14.7005 21.5476 16.4093V22.6203H15.918V29.076H21.3518V44.9859H27.93V29.0148H33.3026L34.196 22.5591H27.8749V17.8289C27.8749 17.8289 28.2604 15.7178 30.243 15.7178C32.2256 15.7178 34.3306 15.6505 34.3306 15.6505Z" fill="#0053AC"/>
</g>
<defs>
<clipPath id="clip0_613_7798">
<rect width="50" height="50" fill="white" transform="translate(0.392578 0.5)"/>
</clipPath>
</defs>
</svg>
