<svg width="51" height="51" viewBox="0 0 51 51" fill="none" xmlns="http://www.w3.org/2000/svg">
<g clip-path="url(#clip0_613_7805)">
<path d="M49.7379 31.2425C52.9092 17.8062 44.5877 4.34321 31.1515 1.17196C17.7152 -1.99928 4.25216 6.32215 1.08091 19.7584C-2.09033 33.1947 6.23111 46.6577 19.6674 49.829C33.1036 53.0002 46.5667 44.6788 49.7379 31.2425Z" fill="white"/>
<path d="M37.6892 38.1205H13.0043C12.3806 38.1205 11.7823 37.8732 11.3406 37.4327C10.899 36.9922 10.6501 36.3945 10.6484 35.7708V16.2199C10.6501 15.5961 10.899 14.9985 11.3406 14.558C11.7823 14.1175 12.3806 13.8701 13.0043 13.8701H37.6892C37.9983 13.8693 38.3045 13.9295 38.5903 14.0472C38.8761 14.165 39.1358 14.3379 39.3547 14.5562C39.5735 14.7745 39.7472 15.0338 39.8656 15.3193C39.9841 15.6048 40.0451 15.9108 40.0451 16.2199V35.8013C40.037 36.4203 39.7851 37.0111 39.3439 37.4453C38.9028 37.8795 38.3082 38.1222 37.6892 38.1205ZM13.0043 14.7268C12.6083 14.7268 12.2286 14.8841 11.9486 15.1641C11.6686 15.4441 11.5112 15.8239 11.5112 16.2199V35.8013C11.5112 36.1973 11.6686 36.5771 11.9486 36.8571C12.2286 37.1371 12.6083 37.2944 13.0043 37.2944H37.6892C38.0857 37.2944 38.4661 37.1373 38.7471 36.8575C39.0281 36.5777 39.1868 36.1979 39.1884 35.8013V16.2199C39.1868 15.8233 39.0281 15.4436 38.7471 15.1638C38.4661 14.8839 38.0857 14.7268 37.6892 14.7268H13.0043Z" fill="#0053AC"/>
<path d="M25.6048 28.1096C25.2442 28.1092 24.8873 28.0376 24.5544 27.899C24.2216 27.7604 23.9193 27.5575 23.665 27.3019L11.7754 15.6754L12.3873 15.0635L24.2769 26.69C24.4534 26.8693 24.6639 27.0115 24.8962 27.1082C25.1284 27.2049 25.3777 27.2541 25.6293 27.2529C25.8813 27.2536 26.131 27.2036 26.3633 27.1059C26.5956 27.0081 26.8059 26.8646 26.9816 26.6838L38.2471 15.3266L38.859 15.9385L27.5752 27.2896C27.319 27.5504 27.0132 27.7572 26.6759 27.8981C26.3385 28.0389 25.9764 28.1108 25.6109 28.1096H25.6048Z" fill="#0053AC"/>
<path d="M27.4531 27.374L28.0268 26.7378L38.8384 36.4863L38.2647 37.1225L27.4531 27.374Z" fill="#0053AC"/>
<path d="M11.585 36.7549L22.8394 26.3841L23.4241 27.0186L12.1696 37.3894L11.585 36.7549Z" fill="#0053AC"/>
</g>
<defs>
<clipPath id="clip0_613_7805">
<rect width="50" height="50" fill="white" transform="translate(0.412109 0.5)"/>
</clipPath>
</defs>
</svg>
