<svg width="51" height="51" viewBox="0 0 51 51" fill="none" xmlns="http://www.w3.org/2000/svg">
<g clip-path="url(#clip0_613_7815)">
<path d="M43.1046 43.1716C52.8666 33.4097 52.8666 17.5825 43.1046 7.82059C33.3427 -1.94133 17.5155 -1.94133 7.75363 7.82059C-2.00828 17.5825 -2.00828 33.4097 7.75363 43.1716C17.5155 52.9335 33.3427 52.9335 43.1046 43.1716Z" fill="white"/>
<path d="M22.516 35.3241L14.0898 29.5231L25.392 14.4209L33.9589 20.0016L22.516 35.3241ZM15.1179 29.3518L22.3263 34.3144L32.8636 20.1913L25.5633 15.4183L15.1179 29.3518Z" fill="#0053AC"/>
<path d="M16.585 30.5352L27.3191 16.5966L27.9057 17.0484L17.1716 30.9869L16.585 30.5352Z" fill="#0053AC"/>
<path d="M19.8535 32.5996L30.2 18.2803L30.8001 18.7139L20.4537 33.0333L19.8535 32.5996Z" fill="#0053AC"/>
<path d="M12.3828 39.6622L14.0166 38.9768L21.3658 35.8867L13.5516 30.5018L12.3828 39.6622ZM26.3652 12.9152L35.0239 18.5999L36.3395 16.5867C36.5269 16.3012 36.6562 15.9815 36.7198 15.646C36.7834 15.3104 36.7802 14.9656 36.7103 14.6314C36.6404 14.2971 36.5051 13.9799 36.3123 13.698C36.1195 13.4161 35.873 13.175 35.5868 12.9886L31.4808 10.2533C30.9368 9.89851 30.2796 9.76016 29.6386 9.86547C28.9977 9.97079 28.4193 10.3122 28.0174 10.8224L26.3652 12.9152ZM38.4996 40.2741H14.2125C14.1151 40.2741 14.0217 40.2354 13.9528 40.1666C13.884 40.0977 13.8453 40.0043 13.8453 39.907C13.8453 39.8096 13.884 39.7162 13.9528 39.6474C14.0217 39.5785 14.1151 39.5398 14.2125 39.5398H38.4996C38.5969 39.5398 38.6903 39.5785 38.7592 39.6474C38.828 39.7162 38.8667 39.8096 38.8667 39.907C38.8667 40.0043 38.828 40.0977 38.7592 40.1666C38.6903 40.2354 38.5969 40.2741 38.4996 40.2741Z" fill="#0053AC"/>
</g>
<defs>
<clipPath id="clip0_613_7815">
<rect width="50" height="50" fill="white" transform="translate(0.431641 0.5)"/>
</clipPath>
</defs>
</svg>
