<svg width="20" height="20" viewBox="0 0 20 20" fill="none" xmlns="http://www.w3.org/2000/svg">
<path d="M18.3285 1.65114C17.8902 1.23315 17.3081 1 16.7027 1C16.0974 1 15.5153 1.23315 15.077 1.65114L6.66128 10.0715C6.39946 10.021 6.13341 9.99583 5.86679 9.99628C5.32477 9.99472 4.78783 10.1008 4.28705 10.3085C3.78628 10.5161 3.33163 10.8212 2.94942 11.2059C1.50763 12.6524 1.12165 17.2347 1.05707 18.1384V18.1384C1.02694 18.5933 1.40508 18.9717 1.85982 18.9399V18.9399C2.76094 18.8782 7.34162 18.494 8.78492 17.0483C9.26234 16.5689 9.61477 15.9794 9.81118 15.3317C10.0076 14.6839 10.042 13.9978 9.91131 13.3336L18.3285 4.9065C18.7586 4.4742 19 3.88894 19 3.27882C19 2.6687 18.7586 2.08344 18.3285 1.65114ZM7.7231 15.9852C7.02473 16.6837 4.51887 17.1581 2.63628 17.361C2.8488 15.4063 3.34441 12.9374 4.01124 12.269C4.51154 11.8179 5.1657 11.5762 5.83878 11.5938C6.51186 11.6114 7.15252 11.8869 7.62862 12.3636C8.10473 12.8403 8.37995 13.4817 8.39753 14.1555C8.41511 14.8294 8.1737 15.4843 7.7231 15.9852ZM17.2682 3.84343L9.29255 11.8292C8.99621 11.38 8.61326 10.9945 8.16615 10.6955L16.1388 2.7127C16.2905 2.56766 16.4922 2.48673 16.702 2.48673C16.9118 2.48673 17.1135 2.56766 17.2652 2.7127C17.3397 2.78668 17.3989 2.87464 17.4393 2.97154C17.4798 3.06845 17.5008 3.1724 17.5011 3.27744C17.5013 3.38248 17.4809 3.48655 17.441 3.58367C17.401 3.68079 17.3423 3.76906 17.2682 3.84343Z" fill="white"/>
</svg>
