<svg width="166" height="30" viewBox="0 0 166 30" fill="none" xmlns="http://www.w3.org/2000/svg">
<path d="M12.9403 16.1861L8.16431 27.9056C8.14242 27.9586 8.13366 28.0115 8.13366 28.0688C8.13366 28.2231 8.21684 28.3598 8.34379 28.4303C8.34817 28.4347 8.35692 28.4392 8.3613 28.4436C10.3619 29.44 12.6164 30 14.9978 30C17.3792 30 19.6337 29.44 21.6343 28.4436C21.6343 28.4436 21.6343 28.4392 21.6431 28.4392C21.7744 28.3686 21.8663 28.2275 21.8663 28.0688C21.8663 28.0115 21.8532 27.963 21.8357 27.9145C21.8357 27.9101 21.8357 27.9056 21.8357 27.9012L17.1253 16.3536C17.1253 16.3536 17.1253 16.3404 17.1166 16.336C16.7839 15.4894 15.9609 14.8898 14.9978 14.8898C14.096 14.8898 13.3212 15.4189 12.9447 16.1861M0.415876 14.8854C0.188239 14.8854 0 15.0705 0 15.3042V15.3175C0.105063 19.1226 1.61097 22.5705 4.00555 25.172C4.00992 25.172 4.00992 25.1808 4.0143 25.1808C4.08872 25.2557 4.19378 25.3042 4.31198 25.3042C4.48709 25.3042 4.63593 25.1984 4.69721 25.0441L8.59769 15.4674V15.4586C8.61958 15.4101 8.63272 15.3571 8.63272 15.3042C8.63272 15.0705 8.44448 14.8854 8.21684 14.8854H0.415876ZM21.7788 14.8854C21.5511 14.8854 21.3629 15.075 21.3629 15.3042C21.3629 15.3616 21.376 15.4189 21.3979 15.4674L25.2984 25.0441C25.3597 25.194 25.5085 25.2998 25.6836 25.2998C25.7975 25.2998 25.8981 25.2557 25.9769 25.1808L25.9945 25.1631C28.389 22.5661 29.8906 19.1182 30 15.3175V15.2998C30 15.0617 29.8118 14.8765 29.5841 14.8765H21.7788V14.8854ZM12.38 0C12.38 0 12.3668 0 12.3625 0C6.94294 0.974427 2.53028 4.87213 0.792354 10.0132V10.022C0.779221 10.0617 0.770465 10.1058 0.770465 10.1499C0.770465 10.3836 0.958704 10.5688 1.18634 10.5688H10.3531C10.5151 10.5556 10.6464 10.4541 10.7033 10.3086L11.4257 8.53175C12.415 5.9127 12.8703 3.41711 12.8528 1.13316V0.42328C12.8528 0.189594 12.6645 0.00440917 12.4369 0.00440917C12.4194 0.00440917 12.4019 0.00440917 12.38 0.00440917M17.1385 0.42328V1.13316C17.1166 3.42152 17.5762 5.92152 18.5612 8.54056L19.2835 10.3131C19.3361 10.4409 19.4455 10.5335 19.5812 10.5644C19.5812 10.5644 19.6031 10.5688 19.6162 10.5688H28.7918C29.0238 10.5688 29.2076 10.3792 29.2076 10.1499C29.2076 10.1058 29.1989 10.0617 29.1858 10.022C27.4653 4.87213 23.0527 0.974427 17.6288 0.00881834C17.62 0.00881834 17.6156 0.00881834 17.6113 0.00881834C17.5938 0.00881834 17.5762 0.00881834 17.5544 0.00881834C17.3267 0.00881834 17.1385 0.198413 17.1385 0.432099" fill="white"/>
<path d="M43.616 6.55571H66.9999C67.0234 6.55571 67.0375 6.5369 67.0375 6.51809V3.91726C67.0375 3.91726 67.0187 3.87964 66.9999 3.87964H43.616C43.5925 3.87964 43.5784 3.89845 43.5784 3.91726V6.51809C43.5784 6.51809 43.5972 6.55571 43.616 6.55571Z" fill="white"/>
<path d="M67.7149 24.6015C67.7149 24.3616 67.522 24.1641 67.2775 24.1641H59.8748C59.3998 24.1406 58.9859 23.7361 58.8354 23.3176C58.8166 23.2611 58.7884 23.1529 58.7884 23.0683V11.9407H67.6208C67.6443 11.936 67.6584 11.9172 67.6584 11.8984V9.30227C67.6584 9.30227 67.6396 9.26465 67.6208 9.26465H43.0376C43.0141 9.26465 43 9.28346 43 9.30227V11.9031C43 11.9031 43.0188 11.9407 43.0376 11.9407H50.7884C50.7366 12.0442 44.6555 23.3975 43.1881 26.1394C43.1787 26.1535 43.174 26.1629 43.1693 26.177C43.1458 26.2288 43.1317 26.2899 43.1317 26.3511C43.1317 26.5909 43.3245 26.7885 43.5691 26.7885H46.01C46.01 26.7885 46.0382 26.7791 46.0429 26.7696C46.0429 26.7696 53.9677 11.9878 53.9912 11.9454H55.99V23.0166C55.9947 25.1 57.6126 26.7932 59.5973 26.7932H65.1893C66.4403 26.7838 67.5173 25.8478 67.7055 24.6768C67.7149 24.6485 67.7149 24.625 67.7149 24.6015Z" fill="white"/>
<path d="M100.782 9.69733C100.782 9.45747 100.59 9.25994 100.345 9.25994H88.7565V3.24466C88.7565 3.24466 88.7377 3.20703 88.7189 3.20703H85.9675C85.944 3.20703 85.9299 3.22584 85.9299 3.24466V9.25994H75.2868C75.2633 9.25994 75.2491 9.27875 75.2491 9.29757V11.8796C75.2491 11.8796 75.268 11.9172 75.2868 11.9172H85.1445C85.0693 12.0254 76.9423 23.2705 74.9105 26.0877C74.8964 26.1018 74.8917 26.1206 74.8823 26.1347C74.8494 26.1959 74.8306 26.2664 74.8306 26.3464C74.8306 26.5862 75.0234 26.7837 75.268 26.7837H77.7465C77.7465 26.7837 77.77 26.7837 77.7794 26.7696L86.5648 14.6967C87.054 14.0712 87.7688 14.0712 88.258 14.725L97.0246 26.7696C97.0246 26.7696 97.0434 26.7837 97.0575 26.7837H99.536C99.7759 26.7837 99.9734 26.5909 99.9734 26.3464C99.9734 26.2523 99.9405 26.1629 99.8888 26.0924C99.8888 26.0924 99.8888 26.083 99.8794 26.0783C97.8335 23.2423 89.73 12.0301 89.6548 11.9219H98.1956C99.4843 11.9125 100.59 10.9578 100.778 9.76788C100.778 9.73966 100.778 9.71614 100.778 9.69733" fill="white"/>
<path d="M148.068 11.7008C148.068 11.7008 148.086 11.7385 148.105 11.7385H150.645C150.645 11.7385 150.683 11.7196 150.683 11.7008V8.13587C150.683 8.09825 150.683 7.97126 150.772 7.88661C150.857 7.80666 150.965 7.79725 150.993 7.79725H152.761V13.2341C152.761 13.2717 152.752 13.3657 152.667 13.441C152.583 13.5162 152.47 13.5256 152.423 13.5256H148.251C148.251 13.5256 148.232 13.5303 148.223 13.535C148.218 13.5445 148.213 13.5539 148.213 13.5633V15.943C148.213 15.943 148.232 15.9807 148.251 15.9807H152.413C152.785 15.9807 153.735 15.9007 154.539 15.1529C155.31 14.4333 155.395 13.7279 155.395 13.4598V7.79725H157.728V13.4645C157.728 13.7326 157.812 14.4333 158.584 15.1529C159.388 15.896 160.329 15.9807 160.695 15.9807H164.872C164.872 15.9807 164.891 15.9807 164.9 15.9666C164.909 15.9525 164.914 15.9477 164.914 15.9383V13.5586C164.914 13.5586 164.895 13.5209 164.877 13.5209H160.71C160.663 13.5209 160.545 13.5115 160.46 13.4363C160.376 13.3563 160.366 13.267 160.366 13.2341V7.79725H162.116C162.168 7.79725 162.262 7.80666 162.342 7.88661C162.44 7.97597 162.431 8.11236 162.431 8.13117V11.6961C162.431 11.6961 162.436 11.7149 162.44 11.7244C162.445 11.7338 162.454 11.7385 162.469 11.7385H165.008C165.008 11.7385 165.046 11.7196 165.046 11.7008V8.1688C165.046 8.1688 165.126 7.04475 164.162 6.13705C163.611 5.615 162.906 5.34693 162.064 5.34222H161.998C161.998 5.34222 161.989 5.33752 161.984 5.33752H157.822V3.78079C157.822 3.75727 157.803 3.74316 157.784 3.74316H155.23C155.23 3.74316 155.193 3.76198 155.193 3.78079V5.33752H148.105C148.105 5.33752 148.068 5.35163 148.068 5.37044V11.7008Z" fill="white"/>
<path d="M147.165 7.46804H144.554V3.69143C144.554 3.66792 144.536 3.65381 144.517 3.65381H142.019C142.019 3.65381 141.982 3.67262 141.982 3.69143V7.46804H139.174C139.174 7.46804 139.136 7.48685 139.136 7.50566V9.90425C139.136 9.90425 139.155 9.94187 139.174 9.94187H141.982V15.8161C141.803 15.9242 140.392 16.752 139.207 17.448C139.198 17.4575 139.188 17.4669 139.188 17.481V19.6021C139.193 19.8419 139.386 20.0301 139.626 20.0301C139.706 20.0301 139.781 20.0112 139.842 19.9736L141.982 18.7179V19.7432C141.982 20.9754 141.977 22.8566 141.977 23.3081C141.954 23.8443 141.681 24.2205 141.29 24.244H139.198C139.198 24.244 139.179 24.244 139.169 24.2582C139.165 24.2582 139.16 24.2723 139.16 24.2864V26.7508C139.16 26.7508 139.179 26.7884 139.198 26.7884H141.375C141.375 26.7884 141.389 26.7884 141.394 26.7884H141.441C141.441 26.7884 141.465 26.7884 141.474 26.7884H141.587C141.587 26.7884 141.606 26.7884 141.62 26.779C143.271 26.652 144.564 25.1329 144.569 23.3269V23.3128C144.569 23.1717 144.564 19.7244 144.559 18.0689V17.2082L147.16 15.6797C147.16 15.6797 147.179 15.6609 147.179 15.6468V13.5304C147.179 13.2905 146.986 13.093 146.741 13.093C146.661 13.093 146.586 13.1165 146.52 13.1541L144.554 14.3064V9.94658H147.165C147.165 9.94658 147.202 9.92776 147.202 9.90895V7.51036C147.202 7.48685 147.188 7.46804 147.165 7.46804Z" fill="white"/>
<path d="M165.305 24.6955C165.305 24.4556 165.112 24.2581 164.867 24.2581H157.7V20.2746H164.956C164.956 20.2746 164.994 20.2557 164.994 20.2369V17.843C164.994 17.843 164.975 17.8054 164.956 17.8054H147.804C147.804 17.8054 147.767 17.8242 147.767 17.843V20.2369C147.767 20.2369 147.785 20.2746 147.804 20.2746H155.061V24.2581H147.804C147.804 24.2581 147.767 24.2769 147.767 24.2957V26.7507C147.767 26.7507 147.771 26.7696 147.776 26.779C147.785 26.7884 147.795 26.7884 147.804 26.7884H162.84C164.082 26.779 165.116 25.8995 165.3 24.7613C165.3 24.7613 165.3 24.719 165.3 24.6955" fill="white"/>
<path d="M133.154 12.6227L129.039 6.74385C129.015 6.69682 128.931 6.57924 128.667 6.2124L128.225 5.58218C128.225 5.58218 128.216 5.57277 128.211 5.56807C128.206 5.55866 128.187 5.53985 128.173 5.52104C128.14 5.4552 127.802 4.8532 126.941 4.36878C126.109 3.89846 125.154 3.86084 124.881 3.86084H111.256C111.256 3.86084 111.237 3.86554 111.228 3.87495C111.228 3.87965 111.219 3.89376 111.219 3.90317V6.09952C111.045 6.34879 107.814 10.9249 106.624 12.618V12.6227C106.572 12.6933 106.544 12.7826 106.544 12.8767C106.544 13.1166 106.741 13.3141 106.981 13.3141H109.351C109.351 13.3141 109.375 13.3094 109.384 13.2953C109.488 13.1495 109.747 12.7826 110.09 12.2935H118.678V15.5857H109.478C109.455 15.5857 109.441 15.6045 109.441 15.6233V18.0172C109.441 18.0172 109.46 18.0548 109.478 18.0548H118.678V24.2677H115.334C115.193 24.0278 113.777 21.4787 113.02 20.1148C113.01 20.1007 113.001 20.096 112.987 20.096H110.523C110.283 20.096 110.085 20.2935 110.085 20.5334C110.085 20.6133 110.109 20.6886 110.146 20.7544L112.107 24.2677H107.658C107.635 24.2677 107.621 24.2865 107.621 24.3053V26.6992C107.621 26.6992 107.64 26.7368 107.658 26.7368H129.801C131.061 26.7227 132.11 25.8761 132.307 24.785V24.7756C132.307 24.7756 132.317 24.7239 132.317 24.7003C132.317 24.4605 132.119 24.263 131.879 24.263H127.83L129.791 20.745C129.829 20.6839 129.848 20.6086 129.848 20.5334C129.848 20.2935 129.65 20.096 129.41 20.096H126.946C126.946 20.096 126.918 20.1054 126.913 20.1148L124.599 24.2677H121.377V18.0548H130.445C130.445 18.0548 130.483 18.036 130.483 18.0172V15.6233C130.483 15.6233 130.464 15.5857 130.445 15.5857H121.377V12.2935H129.721C130.055 12.7685 130.309 13.1307 130.426 13.2953C130.436 13.3047 130.445 13.3141 130.459 13.3141H132.82C133.06 13.3141 133.257 13.1213 133.257 12.8767C133.239 12.7779 133.21 12.6933 133.159 12.6227M111.825 9.82439C111.825 9.82439 114.229 6.42404 114.29 6.33468H125.286C125.351 6.33938 125.469 6.3629 125.507 6.38171L125.61 6.46637C125.671 6.56043 126.024 7.05896 127.966 9.82439H111.825Z" fill="white"/>
</svg>
