<svg width="20" height="20" viewBox="0 0 20 20" fill="none" xmlns="http://www.w3.org/2000/svg">
<path fill-rule="evenodd" clip-rule="evenodd" d="M16.7403 1H3.25992C2.66405 1 2.09258 1.23671 1.67124 1.65805C1.24989 2.0794 1.01318 2.65086 1.01318 3.24673V13.4782C1.01318 14.8589 2.13247 15.9782 3.51318 15.9782H6.18067L9.03253 18.3882C9.30287 18.6167 9.6454 18.7421 9.99937 18.7421C10.3533 18.7421 10.6959 18.6167 10.9662 18.3882L13.8196 15.9782H16.4871C17.8678 15.9782 18.9871 14.8589 18.9871 13.4782V3.24673C18.9871 2.65086 18.7503 2.0794 18.329 1.65805C17.9077 1.23671 17.3362 1 16.7403 1ZM17.4892 13.4804C17.4892 14.0327 17.0415 14.4804 16.4892 14.4804H13.4529C13.3347 14.4804 13.2204 14.5223 13.1301 14.5985L10.6456 16.6983C10.2729 17.0133 9.72731 17.0133 9.35462 16.6983L6.87013 14.5985C6.77989 14.5223 6.66554 14.4804 6.54738 14.4804H3.51101C2.95872 14.4804 2.51101 14.0327 2.51101 13.4804V3.24673C2.51101 3.04811 2.58991 2.85762 2.73036 2.71717C2.87081 2.57673 3.06129 2.49782 3.25992 2.49782H16.7403C16.9389 2.49782 17.1294 2.57673 17.2699 2.71717C17.4103 2.85762 17.4892 3.04811 17.4892 3.24673V13.4804ZM13.1151 9.99C12.6951 9.57 12.1151 9.33 11.5451 9.33H8.4251C7.8451 9.33 7.2951 9.56 6.8651 9.98C6.4451 10.41 6.2251 10.96 6.2251 11.55V12.955C6.2251 13.3333 6.53178 13.64 6.9101 13.64C7.28841 13.64 7.5951 13.3333 7.5951 12.955V11.55C7.5951 11.33 7.6851 11.11 7.8451 10.95C7.9951 10.79 8.2051 10.7 8.4351 10.7H11.5551C11.7951 10.7 12.0051 10.8 12.1551 10.95C12.3151 11.11 12.4051 11.33 12.4051 11.55V12.955C12.4051 13.3333 12.7118 13.64 13.0901 13.64C13.4684 13.64 13.7751 13.3333 13.7751 12.955V11.55C13.7751 10.98 13.5451 10.41 13.1351 9.99H13.1151ZM9.975 8.56C9.445 8.56 8.945 8.41 8.525 8.12H8.545C8.105 7.83 7.775 7.43 7.575 6.95C7.375 6.47 7.325 5.94 7.425 5.44C7.515 4.94 7.755 4.48 8.125 4.1C8.505 3.73 8.965 3.48 9.465 3.38C9.975 3.28 10.505 3.33 10.985 3.53C11.445 3.73 11.855 4.06 12.155 4.5C12.445 4.93 12.595 5.43 12.595 5.95C12.595 6.64 12.315 7.31 11.825 7.8C11.335 8.29 10.675 8.56 9.975 8.56ZM9.285 4.91C9.075 5.06 8.915 5.25 8.825 5.47C8.725 5.71 8.705 5.96 8.755 6.19C8.795 6.43 8.915 6.65 9.085 6.83C9.255 7 9.465 7.11 9.725 7.17C9.965 7.21 10.215 7.18 10.445 7.09C10.665 7 10.855 6.84 10.995 6.64C11.135 6.43 11.205 6.19 11.205 5.95C11.205 5.62 11.075 5.31 10.835 5.07C10.605 4.83 10.285 4.7 9.965 4.7C9.725 4.7 9.485 4.77 9.285 4.91Z" fill="white"/>
</svg>
