<svg width="220" height="141" viewBox="0 0 220 141" fill="none" xmlns="http://www.w3.org/2000/svg">
<path d="M109.221 2.56864H109.213V0.960313C109.213 0.429408 109.639 0 110.166 0C110.205 0 110.252 0 110.29 0.00780742C110.306 0.00780742 110.321 0.00780742 110.329 0.00780742C122.685 2.2095 132.747 11.0943 136.708 22.8211C136.708 22.8211 136.708 22.8211 136.708 22.8289C136.739 22.9226 136.754 23.0163 136.754 23.1256C136.754 23.6565 136.328 24.0859 135.801 24.0859H114.988C114.988 24.0859 114.926 24.0859 114.895 24.0859C114.895 24.0859 114.833 24.0859 114.81 24.0703C114.81 24.0703 114.81 24.0703 114.802 24.0703C114.492 24.0078 114.236 23.7892 114.12 23.5003L112.476 19.4561C110.236 13.4834 109.182 7.79181 109.228 2.57645L109.221 2.56864ZM89.7485 35.2505V35.2349C89.795 35.1256 89.8183 35.0085 89.8183 34.8758C89.8183 34.3448 89.3919 33.9154 88.8648 33.9154H71.1058C70.5864 33.9154 70.1601 34.337 70.1523 34.8679C70.1523 34.8758 70.1523 34.8914 70.1523 34.8992C70.3926 43.5654 73.8189 51.4353 79.2838 57.3611C79.2838 57.3689 79.2993 57.3767 79.307 57.3845C79.4776 57.5563 79.7179 57.6734 79.9814 57.6734C80.3768 57.6734 80.7178 57.4314 80.8574 57.0801L89.7485 35.2505ZM119.895 63.6071C119.895 63.6071 119.887 63.5836 119.879 63.5758L109.159 37.2648C109.159 37.2648 109.151 37.2336 109.143 37.2258C108.383 35.2974 106.508 33.9311 104.322 33.9311C102.267 33.9311 100.492 35.1334 99.6396 36.8823L88.7563 63.5914C88.7098 63.7086 88.6865 63.8335 88.6865 63.9584C88.6865 64.3097 88.8803 64.622 89.1671 64.786C89.1749 64.786 89.1904 64.8016 89.2059 64.8094C93.7638 67.0814 98.9032 68.354 104.329 68.354C109.755 68.354 114.895 67.0736 119.445 64.8094C119.445 64.8094 119.461 64.8094 119.461 64.8016C119.755 64.6376 119.964 64.3253 119.964 63.9584C119.964 63.8335 119.941 63.7164 119.895 63.6071ZM138.506 34.9226C138.506 34.9226 138.506 34.8992 138.506 34.8836C138.506 34.3448 138.08 33.9232 137.553 33.9232H119.778C119.251 33.9232 118.825 34.3527 118.825 34.8836C118.825 35.0163 118.856 35.1412 118.902 35.2583L127.794 57.0879C127.941 57.4314 128.274 57.6734 128.669 57.6734C128.925 57.6734 129.166 57.5719 129.336 57.4002C129.352 57.3924 129.359 57.3767 129.375 57.3689C134.832 51.4509 138.258 43.5888 138.499 34.9304L138.506 34.9226ZM72.8577 24.0859H93.6786C93.6786 24.0859 93.7251 24.0859 93.7483 24.0859C94.1127 24.0547 94.4227 23.8204 94.5545 23.4925L96.2056 19.4405C98.4536 13.4756 99.5001 7.79181 99.4536 2.57645V0.960313C99.4536 0.429408 99.0272 0 98.5079 0C98.4613 0 98.4226 0 98.3761 0.00780742C98.3606 0.00780742 98.3451 0.00780742 98.3296 0.00780742C85.9812 2.21731 75.9196 11.0943 71.9585 22.8133C71.9585 22.8133 71.9585 22.8289 71.9585 22.8367C71.9275 22.9304 71.912 23.0319 71.912 23.1334C71.912 23.6643 72.3383 24.0937 72.8654 24.0937L72.8577 24.0859Z" fill="url(#paint0_linear_382_8700)"/>
<path d="M1.1056 103.264H43.0636C43.1058 103.264 43.1311 103.229 43.1311 103.195V98.4345C43.1311 98.4345 43.0973 98.3657 43.0636 98.3657H1.1056C1.0634 98.3657 1.03809 98.4001 1.03809 98.4345V103.195C1.03809 103.195 1.07184 103.264 1.1056 103.264Z" fill="#005BAC"/>
<path d="M44.3462 136.294C44.3462 135.855 44.0002 135.494 43.5613 135.494H30.2786C29.4263 135.45 28.6836 134.71 28.4136 133.944C28.3798 133.841 28.3292 133.643 28.3292 133.488V113.12H44.1774C44.2196 113.112 44.2449 113.077 44.2449 113.043V108.291C44.2449 108.291 44.2111 108.222 44.1774 108.222H0.0675123C0.0253181 108.222 0 108.257 0 108.291V113.052C0 113.052 0.0337569 113.12 0.0675123 113.12H13.9747C13.8819 113.31 2.97048 134.09 0.337555 139.109C0.320678 139.135 0.312238 139.152 0.303799 139.178C0.261605 139.273 0.236287 139.384 0.236287 139.496C0.236287 139.935 0.58228 140.297 1.0211 140.297H5.40087C5.40087 140.297 5.4515 140.28 5.45994 140.263C5.45994 140.263 19.6794 113.206 19.7216 113.129H23.3081V133.393C23.3165 137.207 26.2195 140.306 29.7807 140.306H39.8145C42.0592 140.288 43.9917 138.575 44.3293 136.432C44.3462 136.38 44.3462 136.337 44.3462 136.294Z" fill="#005BAC"/>
<path d="M103.68 109.014C103.68 108.575 103.334 108.214 102.895 108.214H82.1017V97.2035C82.1017 97.2035 82.0679 97.1346 82.0342 97.1346H77.0975C77.0553 97.1346 77.0299 97.1691 77.0299 97.2035V108.214H57.9328C57.8906 108.214 57.8653 108.248 57.8653 108.282V113.008C57.8653 113.008 57.8991 113.077 57.9328 113.077H75.6207C75.4856 113.275 60.9033 133.858 57.2577 139.014C57.2324 139.04 57.224 139.075 57.2071 139.1C57.148 139.212 57.1143 139.341 57.1143 139.488C57.1143 139.927 57.4603 140.288 57.8991 140.288H62.3464C62.3464 140.288 62.3885 140.288 62.4054 140.263L78.1692 118.165C79.0468 117.02 80.3295 117.02 81.2072 118.217L96.9372 140.263C96.9372 140.263 96.971 140.288 96.9963 140.288H101.444C101.874 140.288 102.228 139.935 102.228 139.488C102.228 139.316 102.169 139.152 102.076 139.023C102.076 139.023 102.076 139.006 102.06 138.997C98.3887 133.806 83.8485 113.284 83.7135 113.086H99.0385C101.351 113.069 103.334 111.321 103.671 109.143C103.671 109.092 103.671 109.049 103.671 109.014" fill="#005BAC"/>
<path d="M188.523 112.681C188.523 112.681 188.557 112.75 188.591 112.75H193.148C193.148 112.75 193.215 112.716 193.215 112.681V106.156C193.215 106.087 193.215 105.855 193.376 105.7C193.528 105.554 193.722 105.536 193.772 105.536H196.945V115.488C196.945 115.557 196.929 115.729 196.777 115.866C196.625 116.004 196.422 116.021 196.338 116.021H188.853C188.853 116.021 188.819 116.03 188.802 116.039C188.793 116.056 188.785 116.073 188.785 116.09V120.446C188.785 120.446 188.819 120.515 188.853 120.515H196.321C196.988 120.515 198.692 120.369 200.135 119C201.519 117.683 201.671 116.392 201.671 115.901V105.536H205.857V115.91C205.857 116.4 206.009 117.683 207.393 119C208.836 120.36 210.524 120.515 211.182 120.515H218.675C218.675 120.515 218.709 120.515 218.726 120.489C218.743 120.463 218.751 120.455 218.751 120.438V116.082C218.751 116.082 218.718 116.013 218.684 116.013H211.207C211.123 116.013 210.912 115.996 210.76 115.858C210.608 115.712 210.591 115.548 210.591 115.488V105.536H213.73C213.823 105.536 213.992 105.554 214.135 105.7C214.313 105.864 214.296 106.113 214.296 106.148V112.673C214.296 112.673 214.304 112.707 214.313 112.724C214.321 112.742 214.338 112.75 214.363 112.75H218.92C218.92 112.75 218.988 112.716 218.988 112.681V106.216C218.988 106.216 219.131 104.159 217.401 102.498C216.414 101.542 215.148 101.051 213.637 101.043H213.519C213.519 101.043 213.502 101.034 213.494 101.034H206.026V98.1849C206.026 98.1419 205.992 98.116 205.958 98.116H201.376C201.376 98.116 201.308 98.1505 201.308 98.1849V101.034H188.591C188.591 101.034 188.523 101.06 188.523 101.095V112.681Z" fill="#005BAC"/>
<path d="M186.903 104.934H182.22V98.0213C182.22 97.9783 182.186 97.9525 182.152 97.9525H177.671C177.671 97.9525 177.604 97.9869 177.604 98.0213V104.934H172.566C172.566 104.934 172.498 104.968 172.498 105.003V109.393C172.498 109.393 172.532 109.462 172.566 109.462H177.604V120.214C177.283 120.412 174.751 121.927 172.625 123.201C172.608 123.218 172.591 123.235 172.591 123.261V127.143C172.599 127.582 172.945 127.927 173.376 127.927C173.519 127.927 173.654 127.892 173.764 127.823L177.604 125.525V127.402C177.604 129.657 177.595 133.1 177.595 133.927C177.553 134.908 177.063 135.597 176.363 135.64H172.608C172.608 135.64 172.574 135.64 172.557 135.666C172.549 135.666 172.54 135.692 172.54 135.717V140.228C172.54 140.228 172.574 140.297 172.608 140.297H176.515C176.515 140.297 176.54 140.297 176.549 140.297H176.633C176.633 140.297 176.675 140.297 176.692 140.297H176.895C176.895 140.297 176.928 140.297 176.954 140.28C179.916 140.047 182.236 137.267 182.245 133.961V133.935C182.245 133.677 182.236 127.367 182.228 124.337V122.762L186.895 119.964C186.895 119.964 186.928 119.93 186.928 119.904V116.03C186.928 115.591 186.582 115.229 186.144 115.229C186 115.229 185.865 115.272 185.747 115.341L182.22 117.45V109.47H186.903C186.903 109.47 186.971 109.436 186.971 109.402V105.011C186.971 104.968 186.945 104.934 186.903 104.934Z" fill="#005BAC"/>
<path d="M219.453 136.466C219.453 136.027 219.107 135.666 218.668 135.666H205.807V128.374H218.828C218.828 128.374 218.896 128.34 218.896 128.306V123.924C218.896 123.924 218.862 123.855 218.828 123.855H188.052C188.052 123.855 187.984 123.889 187.984 123.924V128.306C187.984 128.306 188.018 128.374 188.052 128.374H201.073V135.666H188.052C188.052 135.666 187.984 135.7 187.984 135.735V140.228C187.984 140.228 187.993 140.263 188.001 140.28C188.018 140.297 188.035 140.297 188.052 140.297H215.031C217.259 140.28 219.115 138.67 219.444 136.587C219.444 136.587 219.444 136.509 219.444 136.466" fill="#005BAC"/>
<path d="M161.765 114.369L154.381 103.608C154.338 103.522 154.187 103.307 153.714 102.635L152.921 101.482C152.921 101.482 152.904 101.465 152.895 101.456C152.887 101.439 152.853 101.404 152.828 101.37C152.769 101.249 152.161 100.148 150.617 99.2609C149.123 98.4001 147.41 98.3312 146.921 98.3312H122.473C122.473 98.3312 122.44 98.3398 122.423 98.3571C122.423 98.3657 122.406 98.3915 122.406 98.4087V102.429C122.094 102.885 116.296 111.261 114.161 114.36V114.369C114.068 114.498 114.018 114.661 114.018 114.833C114.018 115.272 114.372 115.634 114.802 115.634H119.056C119.056 115.634 119.098 115.625 119.115 115.6C119.3 115.333 119.764 114.661 120.38 113.766H135.79V119.792H119.283C119.241 119.792 119.216 119.826 119.216 119.861V124.242C119.216 124.242 119.25 124.311 119.283 124.311H135.79V135.683H129.79C129.537 135.244 126.997 130.578 125.638 128.082C125.621 128.056 125.604 128.047 125.579 128.047H121.157C120.726 128.047 120.372 128.409 120.372 128.848C120.372 128.994 120.414 129.132 120.482 129.252L124.001 135.683H116.018C115.975 135.683 115.95 135.717 115.95 135.752V140.133C115.95 140.133 115.984 140.202 116.018 140.202H155.748C158.009 140.176 159.891 138.627 160.246 136.63V136.613C160.246 136.613 160.262 136.518 160.262 136.475C160.262 136.036 159.908 135.674 159.478 135.674H152.212L155.731 129.235C155.798 129.123 155.832 128.986 155.832 128.848C155.832 128.409 155.478 128.047 155.047 128.047H150.625C150.625 128.047 150.575 128.065 150.566 128.082L146.414 135.683H140.634V124.311H156.904C156.904 124.311 156.971 124.277 156.971 124.242V119.861C156.971 119.861 156.938 119.792 156.904 119.792H140.634V113.766H155.604C156.203 114.635 156.659 115.298 156.87 115.6C156.887 115.617 156.904 115.634 156.929 115.634H161.165C161.596 115.634 161.95 115.281 161.95 114.833C161.917 114.653 161.866 114.498 161.773 114.369M123.494 109.247C123.494 109.247 127.807 103.023 127.916 102.859H147.646C147.765 102.868 147.976 102.911 148.043 102.945L148.229 103.1C148.338 103.272 148.971 104.185 152.457 109.247H123.494Z" fill="#005BAC"/>
<defs>
<linearGradient id="paint0_linear_382_8700" x1="104.329" y1="0" x2="104.329" y2="68.3618" gradientUnits="userSpaceOnUse">
<stop stop-color="#004098"/>
<stop offset="1" stop-color="#00A0E9"/>
</linearGradient>
</defs>
</svg>
