<svg width="166" height="31" viewBox="0 0 166 31" fill="none" xmlns="http://www.w3.org/2000/svg">
<path d="M12.9403 16.4428L8.16431 28.1624C8.14242 28.2153 8.13366 28.2682 8.13366 28.3256C8.13366 28.4799 8.21684 28.6166 8.34379 28.6871C8.34817 28.6915 8.35692 28.6959 8.3613 28.7003C10.3619 29.6968 12.6164 30.2568 14.9978 30.2568C17.3792 30.2568 19.6337 29.6968 21.6343 28.7003C21.6343 28.7003 21.6343 28.6959 21.6431 28.6959C21.7744 28.6254 21.8663 28.4843 21.8663 28.3256C21.8663 28.2682 21.8532 28.2197 21.8357 28.1712C21.8357 28.1668 21.8357 28.1624 21.8357 28.158L17.1253 16.6104C17.1253 16.6104 17.1253 16.5972 17.1166 16.5928C16.7839 15.7462 15.9609 15.1465 14.9978 15.1465C14.096 15.1465 13.3212 15.6756 12.9447 16.4428M0.415876 15.1421C0.188239 15.1421 0 15.3273 0 15.561V15.5742C0.105063 19.3794 1.61097 22.8273 4.00555 25.4287C4.00992 25.4287 4.00992 25.4376 4.0143 25.4376C4.08872 25.5125 4.19378 25.561 4.31198 25.561C4.48709 25.561 4.63593 25.4552 4.69721 25.3009L8.59769 15.7241V15.7153C8.61958 15.6668 8.63272 15.6139 8.63272 15.561C8.63272 15.3273 8.44448 15.1421 8.21684 15.1421H0.415876ZM21.7788 15.1421C21.5511 15.1421 21.3629 15.3317 21.3629 15.561C21.3629 15.6183 21.376 15.6756 21.3979 15.7241L25.2984 25.3009C25.3597 25.4508 25.5085 25.5566 25.6836 25.5566C25.7975 25.5566 25.8981 25.5125 25.9769 25.4376L25.9945 25.4199C28.389 22.8229 29.8906 19.3749 30 15.5742V15.5566C30 15.3185 29.8118 15.1333 29.5841 15.1333H21.7788V15.1421ZM12.38 0.256775C12.38 0.256775 12.3668 0.256775 12.3625 0.256775C6.94294 1.2312 2.53028 5.12891 0.792354 10.27V10.2788C0.779221 10.3185 0.770465 10.3626 0.770465 10.4067C0.770465 10.6404 0.958704 10.8256 1.18634 10.8256H10.3531C10.5151 10.8123 10.6464 10.7109 10.7033 10.5654L11.4257 8.78852C12.415 6.16947 12.8703 3.67388 12.8528 1.38993V0.680055C12.8528 0.446369 12.6645 0.261184 12.4369 0.261184C12.4194 0.261184 12.4019 0.261184 12.38 0.261184M17.1385 0.680055V1.38993C17.1166 3.67829 17.5762 6.17829 18.5612 8.79734L19.2835 10.5698C19.3361 10.6977 19.4455 10.7903 19.5812 10.8211C19.5812 10.8211 19.6031 10.8256 19.6162 10.8256H28.7918C29.0238 10.8256 29.2076 10.636 29.2076 10.4067C29.2076 10.3626 29.1989 10.3185 29.1858 10.2788C27.4653 5.12891 23.0527 1.2312 17.6288 0.265593C17.62 0.265593 17.6156 0.265593 17.6113 0.265593C17.5938 0.265593 17.5762 0.265593 17.5544 0.265593C17.3267 0.265593 17.1385 0.455188 17.1385 0.688874" fill="url(#paint0_linear_453_2275)"/>
<path d="M43.6158 6.8123H66.9996C67.0232 6.8123 67.0373 6.79349 67.0373 6.77468V4.17386C67.0373 4.17386 67.0185 4.13623 66.9996 4.13623H43.6158C43.5922 4.13623 43.5781 4.15504 43.5781 4.17386V6.77468C43.5781 6.77468 43.5969 6.8123 43.6158 6.8123Z" fill="#005BAC"/>
<path d="M67.7149 24.8582C67.7149 24.6183 67.522 24.4208 67.2775 24.4208H59.8748C59.3998 24.3973 58.9859 23.9928 58.8354 23.5742C58.8166 23.5178 58.7884 23.4096 58.7884 23.3249V12.1974H67.6208C67.6443 12.1927 67.6584 12.1739 67.6584 12.155V9.55893C67.6584 9.55893 67.6396 9.5213 67.6208 9.5213H43.0376C43.0141 9.5213 43 9.54011 43 9.55893V12.1597C43 12.1597 43.0188 12.1974 43.0376 12.1974H50.7884C50.7366 12.3008 44.6555 23.6542 43.1881 26.3961C43.1787 26.4102 43.174 26.4196 43.1693 26.4337C43.1458 26.4854 43.1317 26.5466 43.1317 26.6077C43.1317 26.8476 43.3245 27.0451 43.5691 27.0451H46.01C46.01 27.0451 46.0382 27.0357 46.0429 27.0263C46.0429 27.0263 53.9677 12.2444 53.9912 12.2021H55.99V23.2732C55.9947 25.3567 57.6126 27.0498 59.5973 27.0498H65.1893C66.4403 27.0404 67.5173 26.1045 67.7055 24.9334C67.7149 24.9052 67.7149 24.8817 67.7149 24.8582Z" fill="#005BAC"/>
<path d="M100.783 9.95398C100.783 9.71412 100.59 9.51659 100.345 9.51659H88.757V3.50131C88.757 3.50131 88.7382 3.46368 88.7194 3.46368H85.968C85.9445 3.46368 85.9304 3.4825 85.9304 3.50131V9.51659H75.2873C75.2637 9.51659 75.2496 9.53541 75.2496 9.55422V12.1362C75.2496 12.1362 75.2684 12.1739 75.2873 12.1739H85.145C85.0697 12.282 76.9428 23.5272 74.911 26.3443C74.8969 26.3584 74.8922 26.3773 74.8828 26.3914C74.8499 26.4525 74.8311 26.5231 74.8311 26.603C74.8311 26.8429 75.0239 27.0404 75.2684 27.0404H77.747C77.747 27.0404 77.7705 27.0404 77.7799 27.0263L86.5653 14.9534C87.0545 14.3279 87.7693 14.3279 88.2585 14.9816L97.0251 27.0263C97.0251 27.0263 97.0439 27.0404 97.058 27.0404H99.5365C99.7764 27.0404 99.9739 26.8476 99.9739 26.603C99.9739 26.5089 99.941 26.4196 99.8893 26.349C99.8893 26.349 99.8893 26.3396 99.8799 26.3349C97.834 23.499 89.7305 12.2867 89.6553 12.1786H98.1961C99.4848 12.1691 100.59 11.2144 100.778 10.0245C100.778 9.99631 100.778 9.9728 100.778 9.95398" fill="#005BAC"/>
<path d="M148.067 11.9575C148.067 11.9575 148.086 11.9951 148.105 11.9951H150.645C150.645 11.9951 150.682 11.9763 150.682 11.9575V8.39253C150.682 8.3549 150.682 8.22792 150.772 8.14326C150.856 8.06331 150.965 8.0539 150.993 8.0539H152.761V13.4907C152.761 13.5283 152.752 13.6224 152.667 13.6976C152.582 13.7729 152.47 13.7823 152.422 13.7823H148.251C148.251 13.7823 148.232 13.787 148.223 13.7917C148.218 13.8011 148.213 13.8105 148.213 13.8199V16.1997C148.213 16.1997 148.232 16.2373 148.251 16.2373H152.413C152.785 16.2373 153.735 16.1574 154.539 15.4096C155.31 14.69 155.395 13.9845 155.395 13.7165V8.0539H157.728V13.7212C157.728 13.9892 157.812 14.69 158.584 15.4096C159.388 16.1527 160.328 16.2373 160.695 16.2373H164.872C164.872 16.2373 164.89 16.2373 164.9 16.2232C164.909 16.2091 164.914 16.2044 164.914 16.195V13.8152C164.914 13.8152 164.895 13.7776 164.876 13.7776H160.709C160.662 13.7776 160.545 13.7682 160.46 13.6929C160.375 13.613 160.366 13.5236 160.366 13.4907V8.0539H162.116C162.167 8.0539 162.261 8.06331 162.341 8.14326C162.44 8.23262 162.431 8.36901 162.431 8.38782V11.9528C162.431 11.9528 162.435 11.9716 162.44 11.981C162.445 11.9904 162.454 11.9951 162.468 11.9951H165.008C165.008 11.9951 165.046 11.9763 165.046 11.9575V8.42545C165.046 8.42545 165.126 7.3014 164.161 6.3937C163.611 5.87166 162.906 5.60358 162.064 5.59888H161.998C161.998 5.59888 161.989 5.59417 161.984 5.59417H157.822V4.03744C157.822 4.01393 157.803 3.99982 157.784 3.99982H155.23C155.23 3.99982 155.193 4.01863 155.193 4.03744V5.59417H148.105C148.105 5.59417 148.067 5.60828 148.067 5.62709V11.9575Z" fill="#005BAC"/>
<path d="M147.165 7.72469H144.555V3.94809C144.555 3.92457 144.536 3.91046 144.517 3.91046H142.02C142.02 3.91046 141.982 3.92927 141.982 3.94809V7.72469H139.174C139.174 7.72469 139.137 7.7435 139.137 7.76231V10.1609C139.137 10.1609 139.156 10.1985 139.174 10.1985H141.982V16.0727C141.803 16.1809 140.392 17.0086 139.207 17.7047C139.198 17.7141 139.188 17.7235 139.188 17.7376V19.8587C139.193 20.0986 139.386 20.2867 139.626 20.2867C139.706 20.2867 139.781 20.2679 139.842 20.2303L141.982 18.9745V19.9998C141.982 21.232 141.977 23.1133 141.977 23.5648C141.954 24.1009 141.681 24.4772 141.291 24.5007H139.198C139.198 24.5007 139.179 24.5007 139.17 24.5148C139.165 24.5148 139.16 24.5289 139.16 24.543V27.0075C139.16 27.0075 139.179 27.0451 139.198 27.0451H141.375C141.375 27.0451 141.39 27.0451 141.394 27.0451H141.441C141.441 27.0451 141.465 27.0451 141.474 27.0451H141.587C141.587 27.0451 141.606 27.0451 141.62 27.0357C143.271 26.9087 144.564 25.3896 144.569 23.5836V23.5695C144.569 23.4284 144.564 19.981 144.559 18.3255V17.4648L147.16 15.9363C147.16 15.9363 147.179 15.9175 147.179 15.9034V13.787C147.179 13.5471 146.986 13.3496 146.742 13.3496C146.662 13.3496 146.586 13.3731 146.521 13.4108L144.555 14.563V10.2032H147.165C147.165 10.2032 147.203 10.1844 147.203 10.1656V7.76702C147.203 7.7435 147.188 7.72469 147.165 7.72469Z" fill="#005BAC"/>
<path d="M165.305 24.9522C165.305 24.7123 165.112 24.5148 164.867 24.5148H157.7V20.5313H164.956C164.956 20.5313 164.994 20.5125 164.994 20.4936V18.0998C164.994 18.0998 164.975 18.0621 164.956 18.0621H147.804C147.804 18.0621 147.767 18.0809 147.767 18.0998V20.4936C147.767 20.4936 147.785 20.5313 147.804 20.5313H155.061V24.5148H147.804C147.804 24.5148 147.767 24.5336 147.767 24.5524V27.0075C147.767 27.0075 147.771 27.0263 147.776 27.0357C147.785 27.0451 147.795 27.0451 147.804 27.0451H162.84C164.082 27.0357 165.116 26.1562 165.3 25.018C165.3 25.018 165.3 24.9757 165.3 24.9522" fill="#005BAC"/>
<path d="M133.154 12.8793L129.039 7.00044C129.015 6.95341 128.931 6.83583 128.667 6.46899L128.225 5.83877C128.225 5.83877 128.216 5.82937 128.211 5.82466C128.206 5.81526 128.188 5.79644 128.174 5.77763C128.141 5.71179 127.802 5.10979 126.941 4.62537C126.109 4.15506 125.154 4.11743 124.881 4.11743H111.256C111.256 4.11743 111.238 4.12213 111.228 4.13154C111.228 4.13624 111.219 4.15035 111.219 4.15976V6.35611C111.045 6.60538 107.814 11.1815 106.624 12.8746V12.8793C106.572 12.9499 106.544 13.0392 106.544 13.1333C106.544 13.3732 106.741 13.5707 106.981 13.5707H109.352C109.352 13.5707 109.375 13.566 109.385 13.5519C109.488 13.4061 109.747 13.0392 110.09 12.5501H118.678V15.8423H109.479C109.455 15.8423 109.441 15.8611 109.441 15.8799V18.2738C109.441 18.2738 109.46 18.3114 109.479 18.3114H118.678V24.5242H115.334C115.193 24.2844 113.777 21.7353 113.02 20.3714C113.011 20.3573 113.001 20.3526 112.987 20.3526H110.523C110.283 20.3526 110.085 20.5501 110.085 20.79C110.085 20.8699 110.109 20.9452 110.147 21.011L112.108 24.5242H107.659C107.635 24.5242 107.621 24.5431 107.621 24.5619V26.9558C107.621 26.9558 107.64 26.9934 107.659 26.9934H129.801C131.061 26.9793 132.11 26.1327 132.308 25.0416V25.0322C132.308 25.0322 132.317 24.9804 132.317 24.9569C132.317 24.7171 132.119 24.5195 131.88 24.5195H127.83L129.791 21.0016C129.829 20.9405 129.848 20.8652 129.848 20.79C129.848 20.5501 129.65 20.3526 129.41 20.3526H126.946C126.946 20.3526 126.918 20.362 126.913 20.3714L124.599 24.5242H121.378V18.3114H130.445C130.445 18.3114 130.483 18.2926 130.483 18.2738V15.8799C130.483 15.8799 130.464 15.8423 130.445 15.8423H121.378V12.5501H129.721C130.055 13.0251 130.309 13.3873 130.426 13.5519C130.436 13.5613 130.445 13.5707 130.459 13.5707H132.82C133.06 13.5707 133.258 13.3779 133.258 13.1333C133.239 13.0345 133.211 12.9499 133.159 12.8793M111.826 10.081C111.826 10.081 114.229 6.68063 114.29 6.59127H125.286C125.352 6.59597 125.469 6.61949 125.507 6.6383L125.61 6.72296C125.672 6.81702 126.024 7.31555 127.967 10.081H111.826Z" fill="#005BAC"/>
<defs>
<linearGradient id="paint0_linear_453_2275" x1="15" y1="0.256775" x2="15" y2="30.2602" gradientUnits="userSpaceOnUse">
<stop stop-color="#004098"/>
<stop offset="1" stop-color="#00A0E9"/>
</linearGradient>
</defs>
</svg>
